<svg xmlns="http://www.w3.org/2000/svg" width="20.64" height="21.756" viewBox="0 0 20.64 21.756">
  <g id="icon_search" transform="translate(0 0)">
    <path id="Trazado_8" data-name="Trazado 8" d="M-2547.454,4281.227a8.823,8.823,0,0,1-8.818-8.808,8.824,8.824,0,0,1,8.818-8.81,8.824,8.824,0,0,1,8.818,8.81A8.823,8.823,0,0,1-2547.454,4281.227Zm0-14.989a6.191,6.191,0,0,0-6.187,6.181,6.192,6.192,0,0,0,6.187,6.18,6.191,6.191,0,0,0,6.187-6.18A6.191,6.191,0,0,0-2547.454,4266.238Z" transform="translate(2556.271 -4263.609)" fill="#3c5ba0"/>
    <path id="Trazado_9" data-name="Trazado 9" d="M-2516.32,4304.949a1.556,1.556,0,0,1-1.1-.458l-4.9-5.151a1.561,1.561,0,0,1,0-2.209,1.562,1.562,0,0,1,2.21,0l4.9,5.15a1.562,1.562,0,0,1,0,2.21A1.557,1.557,0,0,1-2516.32,4304.949Z" transform="translate(2535.397 -4283.192)" fill="#3c5ba0"/>
  </g>
</svg>
